<svg width="1341" height="452" viewBox="0 0 1341 452" fill="none" xmlns="http://www.w3.org/2000/svg">
<g opacity="0.1">
<path d="M1217.89 331.235L1224.38 330.549L1232 330.047L1247.79 325.652L1255.21 322.799L1261.3 317.41L1267.69 313.807L1274.73 309.732L1279.51 305.289L1292.69 306.269L1299.11 313.111L1299.06 324.121L1294.67 329.785L1286.79 335.463L1280.13 340.76L1275.44 344.638L1268.31 349.278L1263.53 353.721L1256.39 358.361L1249.92 362.528L1242.02 364.726L1234.42 368.709L1226.52 370.907L1220.04 371.592L1212.8 373.316L1205.18 373.819L1195.95 373.481L1179.48 371.385L1172.5 367.933L1166.09 364.573L1157.51 360.28L1153.16 354.935L1146.82 347.528L1142.18 340.396L1139.99 332.501L1137.7 325.172L1136.25 316.239L1138.19 307.856L1138.97 292.327L1141.67 286.388L1142.87 279.044L1146.03 270.28L1148.83 263.776L1151.8 256.142L1154.13 248.981L1155.41 241.071L1159.99 234.277L1160.62 226.841L1165.86 219.574L1167.14 211.665L1170.12 204.031L1174.52 198.367L1177.12 189.511L1182.36 182.244L1185.06 176.305L1188.23 167.541L1190.46 160.945L1193.91 153.967L1188.98 145.049L1172.78 141.259L1165.34 140.631L1159.85 131.621L1164.9 125.484L1167.97 117.285L1171.33 110.872L1182.22 104.522L1190.22 105.242L1200.3 107.458L1208.68 109.399L1220.7 103.232L1223.21 94.9417L1226.57 88.5293L1230.11 80.9869L1234.31 72.9713L1236.07 65.7187L1239.43 59.3062L1244.01 52.5123L1246.52 44.2215L1251.67 37.5193L1253.61 29.1368L1257.53 22.816L1261.08 15.2737L1264.06 7.63957L1276.73 1L1284.07 2.19252L1294.52 2.14884L1301.96 2.77642L1308.73 3.87721L1315.07 11.2842L1310.96 18.7349L1308.07 25.804L1302.83 33.0711L1301.26 39.1939L1298.1 47.9578L1294.17 54.2786L1290.06 61.7292L1286.61 68.7066L1284.38 75.3025L1278.58 82.478L1275.03 90.0203L1274.02 96.2348L1268.22 103.41L1265.9 110.571L1269.79 118.741L1279.96 120.392L1287.39 121.02L1295.69 123.526L1310.94 126.002L1320.07 126.905L1327.51 127.533L1337.58 129.749L1340.16 138.865L1336.71 145.843L1332.78 152.163L1330.37 159.889L1319.01 165.582L1309.97 164.115L1301.59 162.174L1295.28 161.73L1285.02 160.643L1279.55 158.596L1269.77 158.167L1262.6 155.844L1254.6 155.125L1241.93 161.765L1240.26 168.452L1236.72 175.995L1232.14 182.788L1229.72 190.514L1224.96 198.438L1220.94 205.324L1217.3 213.431L1216.11 220.775L1213.13 228.41L1209.77 234.822L1206.61 243.586L1203.81 250.09L1199.7 257.541L1197.2 265.832L1193.56 273.939L1192.94 281.375L1189.39 288.917L1189.56 305.76L1190.06 313.379L1194.52 321.641L1200.18 326.04L1217.89 331.235Z" fill="black" stroke="black"/>
<path d="M986.909 346.544L979.505 345.803L970.507 343.752L963.901 340.79L956.897 336.063L948.582 332.93L942.774 327.747L938.218 321.538L931.897 315.729L926.658 310.603L923.982 302.857L919.541 295.51L915.669 288.22L915.84 280.76L911.342 273.982L911.627 265.382L910.033 258.32L911.401 250.404L911.686 241.805L913.339 225.289L913.625 216.69L915.505 209.4L916.303 201.427L918.696 194.764L922.911 187.133L924.905 178.705L928.949 172.782L932.708 163.955L934.474 157.805L939.259 150.231L943.303 144.308L949.056 138.556L953.271 130.925L959.536 125.8L964.719 119.992L970.984 114.867L978.388 109.856L984.596 105.301L989.665 100.631L997.012 96.1896L1004.25 92.8871L1011.36 90.7236L1027.99 85.4857L1035.68 83.3792L1042.75 81.7852L1050.21 81.9568L1060.06 81.2173L1074.18 83.7814L1080.96 85.035L1089.96 87.086L1096.05 89.4216L1103.17 93.0101L1111.26 98.4212L1117.06 103.604L1122.42 107.591L1126.86 114.938L1133.69 121.374L1136.54 127.412L1141.04 134.189L1141.44 141.707L1145.19 150.136L1147.41 156.685L1149.52 164.374L1149.86 172.461L1150.14 181.117L1148.78 189.033L1148.32 205.094L1147.07 211.871L1145.07 220.299L1141.94 228.614L1140.63 235.96L1136.98 243.648L1133.4 250.767L1131.57 257.487L1127.93 265.175L1123.26 271.61L1120.75 279.412L1115 285.163L1110.21 292.737L1105.71 297.464L1099.85 304.354L1095.23 310.22L1087.77 315.8L1082.7 320.47L1077.01 325.652L1068.63 328.84L1062.48 332.826L1055.19 336.698L1050.18 340.798L1032.53 344.783L1027.12 347.118L1019.6 347.516L1010.83 348.939L1002.17 349.222L986.909 346.544ZM1011.34 303.549L1020.06 302.695L1027.12 301.101L1034.47 296.66L1042.84 293.471L1048.42 289.428L1056.45 283.905L1061.58 278.666L1066.82 272.288L1072 266.479L1076.16 259.418L1082.03 252.527L1086.7 246.092L1090.28 238.974L1091.14 230.431L1095.3 223.37L1097.35 214.372L1097.58 206.342L1100.88 190.567L1098.78 182.878L1100.14 174.962L1096.84 167.729L1095.87 160.154L1092.06 152.295L1086.99 145.46L1082.83 141.018L1077.59 135.892L1070.53 131.734L1065.07 128.886L1049.12 127.29L1040.41 128.143L1033.23 130.876L1025.48 133.552L1017.68 136.797L1011.02 140.157L1004.7 145.851L997.292 150.862L992.678 156.728L985.673 163.504L980.376 170.452L978.61 176.602L974.964 184.29L971.262 192.548L968.242 199.723L963.458 207.297L961.976 216.352L960.723 223.13L959.582 240.272L959.354 248.302L959.182 255.762L962.428 263.565L964.591 270.684L967.381 277.29L971.879 284.068L975.353 289.592L982.3 294.89L989.931 299.105L995.398 301.953L1011.34 303.549Z" fill="black" stroke="black"/>
<path d="M705.644 313.695L707.677 305.756L712.02 297.337L712.292 290.474L714.92 281.986L717.457 275.786L719.536 266.704L723.811 260L727.011 251.534L727.855 244.694L729.911 236.184L733.614 229.457L736.769 222.136L738.779 214.769L739.097 206.763L742.251 199.441L746.045 190.427L747.461 183.61L750.615 176.288L751.482 168.876L755.848 159.885L756.143 152.45L759.869 145.151L760.736 137.739L763.936 129.274L767.662 121.976L768.551 113.992L772.277 106.693L774.883 98.7772L776.276 92.5317L778.354 83.4493L781.463 77.2718L793.219 69.7188L808.088 70.3084L816.712 69.5048L823.212 78.9273L822.3 87.4831L819.672 95.9709L815.969 102.698L815.628 111.276L811.834 120.29L809.778 128.801L808.889 136.785L813.164 130.081L818.012 123.399L821.715 116.673L826.585 109.419L832.531 103.927L839.621 98.4803L843.896 91.7763L855.216 80.7692L862.854 75.9169L868.732 72.1404L877.447 69.0492L893.596 66.2528L907.367 65.6533L917.021 67.7545L923.131 72.5792L929.217 77.9757L935.876 83.395L940.179 90.4392L942.172 97.9645L944.669 107.228L945.495 115.28L944.837 131.865L943.353 140.398L939.604 148.269L930.731 155.364L920.391 156.099L904.996 154.343L897.788 148.329L899.249 140.368L897.002 124.813L894.414 117.837L888.9 112.463L874.625 111.324L867.671 113.34L860.695 115.927L855.938 120.321L849.489 124.075L846.38 130.252L841.006 135.767L835.655 140.71L830.213 147.941L825.388 154.05L821.639 161.921L816.243 168.008L812.517 175.306L809.317 183.771L803.92 189.858L801.293 198.346L796.4 206.171L792.674 213.47L789.519 220.791L787.532 227.586L782.616 235.983L780.606 243.349L778.55 251.86L774.778 260.302L770.48 267.578L769.613 274.99L766.986 283.478L763.809 291.371L760.632 299.264L758.072 306.036L755.421 315.096L744.283 321.528L737.375 322.4L728.842 320.916L721.407 320.621L712.212 321.402L705.644 313.695Z" fill="black" stroke="black"/>
<path d="M536.896 315.931L538.526 307.9L542.439 299.271L542.364 292.404L544.56 283.794L546.781 277.474L548.398 268.298L552.329 261.386L555.097 252.771L555.595 245.897L557.218 237.293L560.577 230.388L563.358 222.917L564.994 215.458L564.907 207.446L567.687 199.974L571.021 190.78L572.091 183.9L574.872 176.428L575.363 168.982L579.269 159.781L579.188 152.341L582.541 144.864L583.032 137.418L585.801 128.802L589.153 121.324L589.639 113.306L592.991 105.828L595.193 97.7907L596.269 91.4827L597.887 82.307L600.68 75.9804L612.039 67.8433L626.919 67.6813L635.491 66.4432L642.459 75.5254L641.98 84.1163L639.784 92.726L636.425 99.6312L636.518 108.216L633.184 117.41L631.561 126.014L631.076 134.032L635.007 127.121L639.511 120.203L642.87 113.298L647.367 105.808L653.028 100.023L659.834 94.2248L663.765 87.3134L674.514 75.7487L681.898 70.5168L687.578 66.4483L696.125 62.9209L712.113 59.3125L725.836 58.0182L735.584 59.6292L741.929 64.1392L748.281 69.2215L755.205 74.2975L759.858 81.1154L762.228 88.5306L765.189 97.6564L766.421 105.656L766.602 122.254L765.551 130.851L762.204 138.9L753.701 146.434L743.411 147.691L727.946 146.715L720.444 141.072L721.501 133.048L718.472 117.626L715.535 110.79L709.756 105.701L695.442 105.285L688.599 107.649L681.762 110.585L677.234 115.213L670.982 119.288L668.189 125.615L663.1 131.394L658.006 136.601L652.936 144.097L648.426 150.442L645.079 158.492L639.997 164.844L636.644 172.321L633.876 180.937L628.794 187.289L626.598 195.898L622.107 203.961L618.754 211.438L615.973 218.909L614.331 225.796L609.846 234.431L608.21 241.889L606.587 250.493L603.246 259.115L599.321 266.599L598.83 274.045L596.634 282.655L593.86 290.698L591.086 298.742L588.871 305.634L586.682 314.816L575.882 321.803L569.027 323.022L560.43 321.971L552.99 322.052L543.845 323.296L536.896 315.931Z" fill="black" stroke="black"/>
<path d="M374.346 345.556L365.697 345.1L357.481 342.887L348.216 341.906L339.909 338.552L333.359 335.632L327.288 331.524L321.081 325.705L313.869 321.689L309.327 315.162L305.356 308.59L298.441 301.105L296.66 293.209L292.119 286.683L290.954 279.311L288.033 271.507L286.161 262.47L284.951 254.528L284.722 237.321L282.371 229.471L283.443 221.346L283.466 214.454L285.108 206.284L286.66 196.973L286.591 188.94L288.325 181.911L290.538 173.696L295.125 166.438L296.722 157.698L300.692 149.916L303.567 142.795L305.963 136.862L311.645 128.943L316.323 122.826L320.294 115.044L326.158 109.407L330.266 103.336L338.458 98.0871L343.752 92.4957L349.754 88.5701L357.467 84.5076L364.656 81.0612L372.369 76.9987L380.744 74.0315L386.312 71.8632L396.582 71.0411L410.845 69.8993L418.924 70.4009L426.477 71.5187L442.43 77.1318L448.546 81.8098L452.905 86.0543L458.451 90.778L464.088 96.6426L468.721 104.31L473.217 110.266L477.804 117.363L479.539 124.689L481.844 131.969L485.244 124.232L488.074 116.541L490.378 109.467L495.398 100.452L497.133 93.4231L501.149 86.2115L502.266 78.6576L511.896 69.8482L519.884 69.2088L528.487 69.0942L537.045 68.4091L541.062 75.5519L538.187 82.6722L535.928 90.3174L535.997 98.3504L533.259 107.182L529.813 114.348L529.22 121.286L526.391 128.977L525.41 138.242L524.201 144.655L520.892 153.532L519.729 160.516L516.375 168.823L514.161 177.038L512.952 183.451L511.355 192.192L509.621 199.221L508.549 207.345L506.336 215.561L504.123 223.776L501.864 231.422L500.221 239.592L499.058 246.575L498.077 255.84L497.484 262.778L502.277 279.62L507.96 286.055L524.642 286.442L530.119 283.133L537.924 280.211L542.031 274.14L548.558 269.599L552.62 262.958L558.963 256.134L563.117 250.634L568.89 243.856L571.24 237.351L577.584 230.528L580.459 223.407L583.288 215.716L587.921 209.03L590.75 201.339L597.094 194.515L598.691 185.774L603.848 178.471L613.981 175.938L621.763 179.908L624.525 192.893L622.22 199.968L618.729 206.563L614.713 213.775L611.267 220.941L606.726 228.769L603.806 235.319L599.881 243.671L597.485 249.605L591.803 257.524L588.837 263.503L585.391 270.669L580.713 276.786L575.601 284.659L570.307 290.251L563.918 296.504L558.715 303.236L548.743 314.944L541.075 319.577L534.594 324.689L530.304 328.478L521.404 332.061L515.174 333.134L499.816 334.938L490.596 334.528L482.951 332.269L475.168 328.298L470.285 324.67L465.264 319.33L461.863 312.712L458.417 305.524L456.545 296.487L451.479 304.931L444.473 310.659L439.179 316.251L432.835 323.075L427.404 326.954L419.828 332.729L412.639 336.175L405.451 339.621L397.646 342.543L388.518 343.274L374.346 345.556ZM396.936 297.814L403.075 295.6L408.461 291.149L415.695 288.273L423.271 282.499L428.086 278.095L434.521 272.412L438.583 265.771L441.458 258.65L446.707 252.488L450.723 245.277L453.552 237.586L454.099 230.078L457.545 222.912L458.663 215.358L459.689 206.663L461.332 198.493L459.643 191.738L459.528 183.135L459.345 166.498L456.469 159.264L454.689 151.368L452.292 142.947L448.937 136.9L442.638 129.94L435.86 124.166L430.405 120.584L422.098 117.229L413.449 116.774L398.045 118.007L390.674 119.171L384.056 122.572L375.863 127.821L368.721 131.838L364.613 137.908L357.699 144.778L353.5 149.707L349.005 158.106L346.038 164.085L342.593 171.251L340.904 178.851L337.025 187.774L335.999 196.469L335.406 203.406L332.622 211.668L332.166 220.317L332.189 227.779L334.655 244.233L335.956 253.316L337.737 261.212L341.754 268.355L345.862 276.638L351.499 282.503L356.611 288.984L362.682 293.092L370.418 296.491L379.775 298.613L396.936 297.814Z" fill="black" stroke="black"/>
<path d="M352.188 111.738L358.853 113.583L363.107 122.183L358.524 129.859L356.589 135.959L351.351 143.159L347.066 149.05L342.959 156.071L337.543 162.141L332.99 166.336L325.967 173.238L320.938 178.088L315.075 181.33L306.476 185.584L300.138 189.481L291.746 191.385L278.178 193.525L270.65 193.554L263.24 201.677L262.793 209.859L263.089 219.083L264.725 225.778L263.236 234.705L261.182 243.72L259.426 250.95L258.413 259.222L256.091 266.542L253.859 274.426L252.191 282.222L248.174 289.809L244.9 298.438L243.441 303.883L237.251 312.392L230.078 325.691L219.633 336.61L213.562 342.204L207.492 347.797L199.636 353.092L191.602 357.257L186.007 362.196L178.836 364.486L171.843 367.907L162.321 369.989L147.057 372.397L137.833 372.694L129.561 371.681L121.289 370.668L113.493 369.001L107.602 364.716L101.146 360.52L94.2136 356.978L87.3112 349.955L83.5925 344.747L77.8208 337.546L73.8345 330.642L72.2565 339.003L70.0239 346.888L66.8968 371.138L66.2712 378.19L66.3001 385.718L64.1567 394.168L64.364 402.827L63.8275 410.444L63.291 418.061L60.522 433.563L60.0748 441.746L57.9314 450.196L57.4841 458.379L56.8585 465.43L57.0657 474.089L55.4878 482.45L52.8079 498.518L52.1823 505.569L52.3895 514.228L50.2462 522.678L48.4898 529.909L39.5622 539.429L30.9927 540.202L15.9065 543.741L9.59841 544.157L1 537.401L3.23254 529.516L3.20365 521.988L4.12709 513.151L5.70507 504.79L6.24155 497.173L7.34338 489.467L7.70145 480.719L9.45784 473.489L12.0773 464.384L11.3939 456.38L13.0611 448.584L13.1214 441.621L14.0448 432.784L15.8012 425.554L16.1593 416.806L18.9572 408.832L19.4045 400.65L19.9409 393.032L21.5189 384.671L21.5792 377.709L23.6334 368.693L23.1283 361.82L24.5279 352.328L25.0644 344.711L26.2554 337.57L28.3096 328.554L28.3699 321.592L31.5547 312.398L32.7458 305.257L31.5862 297.907L32.5096 289.07L35.8729 281.007L34.6241 273.092L36.1129 264.165L37.9584 257.5L38.2273 248.187L39.3292 240.481L41.4725 232.031L42.0982 224.979L42.4562 216.231L44.2126 209.001L45.7014 200.074L46.714 191.803L45.6437 185.018L47.1324 176.092L48.978 169.427L48.6815 160.203L50.3487 152.407L52.5813 144.523L52.6416 137.56L54.1304 128.634L62.5818 119.768L72.1036 117.686L78.9771 117.181L87.9336 115.188L95.4013 122.122L94.5671 131.524L94.7743 140.183L92.7202 149.199L95.665 156.846L97.5998 150.747L103.403 143.457L106.468 137.179L111.408 131.764L117.301 125.041L120.931 118.673L127.657 113.556L135.126 109.481L141.196 103.888L146.671 101.865L155.926 98.087L163.662 95.7075L177.618 92.3468L185.89 93.3594L194.637 93.7175L200.35 96.8722L208.235 99.1047L215.733 102.557L224.064 107.616L230.133 113.033L233.286 118.329L239.713 126.007L243.52 131.78L248.251 139.725L252.237 146.629L260.984 157.996L269.523 160.705L276.486 160.765L292.405 158.833L307.997 151.158L313.681 146.784L320.317 141.102L324.126 135.866L330.673 129.618L336.565 122.894L340.196 116.527L352.188 111.738ZM160.839 323.868L175.955 316.848L183.246 311.642L189.138 304.918L192.293 299.205L196.4 292.183L201.548 284.418L204.524 277.575L209.584 269.244L211.995 262.49L212.829 253.087L214.02 245.946L216.163 237.496L215.48 229.492L218.189 220.953L217.981 212.294L217.209 203.724L214.622 187.329L210.159 181.08L208.345 173.254L205.49 166.172L201.414 158.703L194.69 152.811L190.495 148.258L181.688 143.853L173.803 141.621L165.71 141.739L150.922 143.493L145.446 145.515L138.543 149.502L132.472 155.095L125.747 160.212L121.551 166.668L115.48 172.261L110.332 180.027L106.79 186.959L105.034 194.19L101.403 200.557L98.6048 208.531L94.7654 217.249L94.1397 224.3L93.6032 231.918L92.5906 240.189L90.5365 249.205L90.5653 256.733L91.9033 265.213L95.4424 280.299L98.0003 289.167L100.767 295.683L103.801 303.896L111.179 310.265L114.809 314.907L123.705 319.877L130.548 322.853L138.909 324.431L145.485 325.711L160.839 323.868Z" fill="black" stroke="black"/>
</g>
</svg>
