<svg width="120" height="58" viewBox="0 0 120 58" fill="none" xmlns="http://www.w3.org/2000/svg">
<g filter="url(#filter0_d_698_536)">
<path d="M37.6343 21.8701L38.1102 22.0019L38.414 22.616L38.0867 23.1641L37.9486 23.5996L37.5746 24.1137L37.2686 24.5343L36.9753 25.0357L36.5886 25.4691L36.2635 25.7686L35.7621 26.2615L35.403 26.6077L34.9844 26.8393L34.3703 27.143L33.9178 27.4213L33.3186 27.5572L32.3498 27.7101L31.8123 27.7121L31.2832 28.2921L31.2512 28.8763L31.2724 29.535L31.3892 30.013L31.2829 30.6504L31.1362 31.2941L31.0108 31.8104L30.9385 32.401L30.7727 32.9236L30.6133 33.4867L30.4943 34.0433L30.2074 34.585L29.9736 35.2011L29.8694 35.5899L29.4275 36.1975L28.9153 37.1471L28.1695 37.9268L27.736 38.3262L27.3026 38.7255L26.7416 39.1037L26.1679 39.401L25.7685 39.7537L25.2564 39.9172L24.7571 40.1615L24.0772 40.3101L22.9873 40.4821L22.3287 40.5033L21.738 40.4309L21.1474 40.3586L20.5908 40.2396L20.1701 39.9336L19.7091 39.634L19.2141 39.3811L18.7213 38.8796L18.4557 38.5078L18.0436 37.9936L17.759 37.5007L17.6463 38.0977L17.4869 38.6607L17.2636 40.3922L17.2189 40.8957L17.221 41.4332L17.068 42.0366L17.0828 42.6549L17.0445 43.1988L17.0062 43.7427L16.8084 44.8496L16.7765 45.4338L16.6235 46.0372L16.5915 46.6214L16.5468 47.125L16.5616 47.7432L16.449 48.3402L16.2576 49.4875L16.2129 49.991L16.2277 50.6093L16.0747 51.2127L15.9493 51.7289L15.3118 52.4087L14.6999 52.4639L13.6227 52.7166L13.1723 52.7463L12.5584 52.2639L12.7178 51.7009L12.7157 51.1634L12.7817 50.5324L12.8943 49.9354L12.9326 49.3915L13.0113 48.8412L13.0369 48.2166L13.1623 47.7003L13.3493 47.0502L13.3005 46.4787L13.4196 45.9221L13.4239 45.4249L13.4898 44.7939L13.6152 44.2777L13.6408 43.653L13.8406 43.0837L13.8725 42.4994L13.9108 41.9555L14.0235 41.3585L14.0278 40.8613L14.1745 40.2176L14.1384 39.7268L14.2383 39.0491L14.2766 38.5052L14.3617 37.9953L14.5084 37.3516L14.5127 36.8544L14.7401 36.1979L14.8251 35.688L14.7423 35.1632L14.8083 34.5322L15.0484 33.9565L14.9592 33.3913L15.0655 32.754L15.1973 32.2781L15.2165 31.6131L15.2952 31.0628L15.4482 30.4595L15.4929 29.9559L15.5185 29.3313L15.6439 28.815L15.7502 28.1777L15.8225 27.587L15.7461 27.1026L15.8524 26.4652L15.9842 25.9893L15.963 25.3307L16.082 24.7741L16.2414 24.2111L16.2457 23.7139L16.352 23.0766L16.9555 22.4435L17.6354 22.2949L18.1262 22.2588L18.7657 22.1165L19.2989 22.6116L19.2394 23.283L19.2542 23.9012L19.1075 24.545L19.3178 25.091L19.4559 24.6555L19.8703 24.135L20.0892 23.6868L20.4419 23.3001L20.8626 22.82L21.1219 22.3654L21.6021 22L22.1354 21.709L22.5688 21.3096L22.9598 21.1652L23.6206 20.8954L24.173 20.7255L25.1695 20.4856L25.7601 20.5579L26.3847 20.5834L26.7926 20.8087L27.3556 20.9681L27.891 21.2146L28.4858 21.5759L28.9192 21.9626L29.1444 22.3408L29.6032 22.889L29.8751 23.3012L30.2129 23.8685L30.4975 24.3615L31.122 25.1731L31.7318 25.3665L32.2289 25.3709L33.3656 25.2329L34.479 24.6849L34.8848 24.3726L35.3586 23.9669L35.6306 23.593L36.0981 23.1468L36.5188 22.6667L36.7781 22.2121L37.6343 21.8701ZM23.9714 37.017L25.0507 36.5157L25.5713 36.1439L25.992 35.6638L26.2173 35.2559L26.5105 34.7546L26.8782 34.2001L27.0907 33.7114L27.4519 33.1166L27.6241 32.6343L27.6837 31.963L27.7687 31.4531L27.9217 30.8497L27.8729 30.2782L28.0663 29.6684L28.0515 29.0502L27.9964 28.4383L27.8117 27.2676L27.493 26.8214L27.3635 26.2626L27.1596 25.7569L26.8686 25.2236L26.3885 24.8029L26.0889 24.4778L25.4601 24.1633L24.8971 24.0039L24.3192 24.0123L23.2633 24.1375L22.8723 24.282L22.3794 24.5666L21.9459 24.966L21.4657 25.3314L21.1661 25.7924L20.7326 26.1917L20.365 26.7462L20.1121 27.2412L19.9867 27.7575L19.7274 28.2121L19.5277 28.7815L19.2535 29.404L19.2088 29.9075L19.1705 30.4514L19.0982 31.042L18.9516 31.6858L18.9536 32.2233L19.0492 32.8288L19.3019 33.906L19.4845 34.5392L19.682 35.0045L19.8987 35.5909L20.4255 36.0456L20.6847 36.3771L21.3199 36.732L21.8085 36.9445L22.4055 37.0572L22.8751 37.1486L23.9714 37.017ZM39.2165 38.5657L38.5989 38.5331L38.0123 38.3751L37.3507 38.3051L36.7576 38.0656L36.2899 37.857L35.8564 37.5637L35.4132 37.1482L34.8983 36.8615L34.574 36.3954L34.2904 35.9262L33.7966 35.3917L33.6695 34.8279L33.3452 34.3619L33.2621 33.8356L33.0535 33.2783L32.9198 32.633L32.8334 32.066L32.8171 30.8373L32.6492 30.2768L32.7257 29.6967L32.7274 29.2046L32.8446 28.6212L32.9554 27.9564L32.9505 27.3828L33.0743 26.8809L33.2323 26.2943L33.5598 25.7761L33.6739 25.152L33.9574 24.5963L34.1627 24.0879L34.3337 23.6642L34.7395 23.0987L35.0735 22.662L35.357 22.1063L35.7757 21.7038L36.069 21.2704L36.654 20.8956L37.032 20.4963L37.4606 20.216L38.0113 19.9259L38.5246 19.6799L39.0753 19.3898L39.6734 19.1779L40.0709 19.0231L40.8042 18.9644L41.8226 18.8829L42.3995 18.9187L42.9389 18.9985L44.0779 19.3993L44.5146 19.7333L44.8259 20.0364L45.2219 20.3737L45.6244 20.7924L45.9552 21.3399L46.2762 21.7652L46.6038 22.2719L46.7276 22.795L46.8923 23.3148L47.135 22.7624L47.337 22.2132L47.5016 21.7081L47.8601 21.0644L47.9839 20.5625L48.2706 20.0476L48.3504 19.5082L49.0381 18.8792L49.6084 18.8335L50.2227 18.8254L50.8338 18.7764L51.1206 19.2865L50.9153 19.7949L50.754 20.3408L50.7589 20.9144L50.5634 21.545L50.3174 22.0567L50.275 22.552L50.073 23.1012L50.003 23.7628L49.9166 24.2206L49.6804 24.8545L49.5973 25.3532L49.3578 25.9463L49.1998 26.5329L49.1135 26.9908L48.9994 27.6149L48.8756 28.1168L48.799 28.6969L48.641 29.2836L48.483 29.8702L48.3217 30.4161L48.2044 30.9994L48.1213 31.4981L48.0513 32.1597L48.009 32.655L48.3512 33.8576L48.757 34.3171L49.9481 34.3447L50.3392 34.1084L50.8965 33.8998L51.1898 33.4663L51.6558 33.142L51.9458 32.6678L52.3988 32.1806L52.6953 31.7879L53.1076 31.3039L53.2754 30.8395L53.7284 30.3522L53.9337 29.8438L54.1357 29.2947L54.4664 28.8172L54.6685 28.2681L55.1214 27.7808L55.2355 27.1567L55.6037 26.6353L56.3272 26.4543L56.8829 26.7378L57.0801 27.665L56.9155 28.1702L56.6663 28.6411L56.3795 29.156L56.1335 29.6677L55.8092 30.2267L55.6007 30.6943L55.3204 31.2907L55.1494 31.7144L54.7436 32.2799L54.5318 32.7068L54.2858 33.2185L53.9518 33.6552L53.5868 34.2174L53.2088 34.6167L52.7525 35.0632L52.381 35.5439L51.669 36.3799L51.1215 36.7107L50.6588 37.0757L50.3524 37.3462L49.7169 37.6021L49.2721 37.6787L48.1754 37.8075L47.5171 37.7782L46.9712 37.6169L46.4156 37.3334L46.0668 37.0743L45.7083 36.693L45.4655 36.2205L45.2194 35.7072L45.0858 35.0619L44.7241 35.6649L44.2238 36.0739L43.8458 36.4732L43.3928 36.9604L43.005 37.2374L42.464 37.6497L41.9508 37.8958L41.4375 38.1419L40.8802 38.3505L40.2284 38.4027L39.2165 38.5657ZM40.8295 35.1567L41.2679 34.9986L41.6524 34.6808L42.1689 34.4755L42.7099 34.0632L43.0537 33.7487L43.5132 33.3429L43.8032 32.8687L44.0085 32.3603L44.3833 31.9203L44.6701 31.4054L44.8721 30.8562L44.9112 30.3201L45.1572 29.8084L45.237 29.2691L45.3103 28.6482L45.4276 28.0649L45.307 27.5825L45.2988 26.9682L45.2857 25.7803L45.0804 25.2638L44.9532 24.7L44.7821 24.0987L44.5425 23.6669L44.0928 23.1699L43.6088 22.7577L43.2193 22.5019L42.6262 22.2624L42.0086 22.2298L40.9087 22.3179L40.3824 22.401L39.9098 22.6438L39.3249 23.0186L38.8148 23.3055L38.5215 23.7389L38.0278 24.2294L37.728 24.5814L37.4071 25.1811L37.1952 25.608L36.9492 26.1197L36.8287 26.6623L36.5517 27.2995L36.4784 27.9203L36.436 28.4157L36.2373 29.0056L36.2047 29.6232L36.2064 30.156L36.3824 31.3309L36.4753 31.9794L36.6025 32.5432L36.8893 33.0532L37.1826 33.6447L37.5851 34.0635L37.9502 34.5262L38.3836 34.8195L38.936 35.0623L39.6042 35.2138L40.8295 35.1567ZM50.8231 36.4502L50.9395 35.8767L51.2189 35.2606L51.2135 34.7703L51.3703 34.1555L51.5289 33.7042L51.6444 33.049L51.9251 32.5555L52.1227 31.9403L52.1583 31.4495L52.2742 30.8352L52.514 30.3421L52.7126 29.8087L52.8294 29.2761L52.8231 28.704L53.0217 28.1705L53.2597 27.514L53.3361 27.0227L53.5347 26.4892L53.5698 25.9575L53.8487 25.3006L53.8429 24.7693L54.0823 24.2354L54.1174 23.7037L54.315 23.0885L54.5544 22.5546L54.5891 21.9821L54.8285 21.4481L54.9857 20.8742L55.0626 20.4238L55.178 19.7687L55.3775 19.3169L56.1885 18.7359L57.251 18.7243L57.8631 18.6359L58.3606 19.2844L58.3264 19.8979L58.1696 20.5126L57.9298 21.0057L57.9365 21.6186L57.6984 22.2751L57.5825 22.8895L57.5478 23.462L57.8286 22.9685L58.1501 22.4746L58.39 21.9815L58.7111 21.4467L59.1153 21.0336L59.6013 20.6196L59.882 20.1261L60.6495 19.3004L61.1767 18.9268L61.5823 18.6363L62.1926 18.3844L63.3341 18.1268L64.314 18.0344L65.0101 18.1494L65.4631 18.4714L65.9167 18.8343L66.411 19.1968L66.7433 19.6836L66.9126 20.213L67.124 20.8647L67.212 21.4359L67.2249 22.621L67.1498 23.2348L66.9109 23.8096L66.3037 24.3475L65.569 24.4373L64.4647 24.3676L63.929 23.9647L64.0045 23.3917L63.7882 22.2906L63.5785 21.8024L63.1659 21.4391L62.1438 21.4093L61.6552 21.5781L61.167 21.7878L60.8437 22.1183L60.3973 22.4092L60.1978 22.861L59.8345 23.2736L59.4707 23.6454L59.1087 24.1807L58.7867 24.6338L58.5477 25.2085L58.1848 25.6621L57.9454 26.196L57.7478 26.8112L57.3849 27.2647L57.2281 27.8795L56.9074 28.4551L56.668 28.989L56.4695 29.5225L56.3522 30.0142L56.032 30.6308L55.9152 31.1634L55.7993 31.7777L55.5607 32.3933L55.2805 32.9277L55.2454 33.4594L55.0886 34.0741L54.8905 34.6485L54.6924 35.2228L54.5343 35.715L54.378 36.3706L53.6069 36.8694L53.1174 36.9565L52.5035 36.8814L51.9723 36.8872L51.3193 36.9761L50.8231 36.4502ZM62.8722 36.2907L63.0174 35.7238L63.3275 35.1226L63.3469 34.6326L63.5346 34.0266L63.7157 33.5838L63.8641 32.9353L64.1694 32.4566L64.3979 31.8522L64.4581 31.3638L64.6049 30.7561L64.8694 30.2758L65.0946 29.7531L65.2382 29.2271L65.2608 28.6554L65.4861 28.1326L65.757 27.4889L65.8581 27.0022L66.0833 26.4794L66.1452 25.9501L66.457 25.3081L66.478 24.7773L66.7441 24.2561L66.806 23.7269L67.0344 23.1224L67.3005 22.6013L67.364 22.0312L67.6301 21.5101L67.8161 20.9448L67.9156 20.4989L68.064 19.8504L68.286 19.4093L69.1253 18.87L70.1871 18.9121L70.8028 18.8547L71.2669 19.5275L71.2018 20.1384L71.0142 20.7445L70.7497 21.2248L70.7255 21.8373L70.4545 22.481L70.3077 23.0886L70.2442 23.6587L70.5495 23.18L70.8956 22.7029L71.1601 22.2226L71.5078 21.7047L71.9324 21.3126L72.4386 20.9236L72.7439 20.445L73.5521 19.659L74.0975 19.3125L74.5172 19.0429L75.1395 18.8222L76.2926 18.6225L77.2759 18.5797L77.9652 18.7297L78.4015 19.0742L78.8361 19.4595L79.3115 19.8465L79.6188 20.3495L79.7611 20.8868L79.9393 21.5483L79.9983 22.1232L79.9514 23.3074L79.8454 23.9167L79.5777 24.4787L78.9442 24.9853L78.2059 25.0378L77.1066 24.9124L76.5919 24.483L76.6962 23.9146L76.5358 22.8039L76.351 22.3058L75.9573 21.9221L74.938 21.8408L74.4415 21.9847L73.9434 22.1694L73.6037 22.4831L73.1432 22.7512L72.9212 23.1923L72.5375 23.586L72.1554 23.939L71.7668 24.4553L71.4223 24.8915L71.1547 25.4535L70.7693 25.8881L70.5033 26.4093L70.2748 27.0137L69.8895 27.4483L69.7018 28.0544L69.3525 28.6131L69.0864 29.1343L68.8612 29.657L68.7192 30.1422L68.3683 30.7418L68.2247 31.2678L68.0779 31.8754L67.8086 32.4783L67.5017 32.9978L67.4398 33.527L67.2522 34.1331L67.0254 34.6967L66.7985 35.2603L66.6157 35.7438L66.4265 36.3907L65.6312 36.85L65.1379 36.9122L64.5286 36.8063L63.9978 36.7852L63.3411 36.841L62.8722 36.2907ZM82.9555 38.6361L82.4269 38.5831L81.7844 38.4367L81.3127 38.2252L80.8126 37.8876L80.2189 37.6639L79.8041 37.2938L79.4789 36.8506L79.0275 36.4357L78.6534 36.0697L78.4624 35.5167L78.1452 34.992L77.8688 34.4715L77.881 33.9388L77.5598 33.4549L77.5802 32.8408L77.4664 32.3366L77.564 31.7713L77.5844 31.1573L77.7024 29.978L77.7228 29.364L77.8571 28.8435L77.9141 28.2742L78.0849 27.7984L78.3859 27.2536L78.5283 26.6517L78.817 26.2289L79.0855 25.5986L79.2116 25.1594L79.5532 24.6186L79.842 24.1957L80.2527 23.785L80.5537 23.2402L81.001 22.8742L81.3711 22.4595L81.8185 22.0935L82.3471 21.7357L82.7904 21.4105L83.1524 21.077L83.677 20.7599L84.1934 20.5241L84.7017 20.3696L85.8892 19.9956L86.4382 19.8452L86.9424 19.7314L87.4751 19.7436L88.1786 19.6908L89.1871 19.8739L89.671 19.9634L90.3135 20.1099L90.7486 20.2766L91.2569 20.5329L91.8343 20.9193L92.249 21.2893L92.6313 21.574L92.9484 22.0986L93.4363 22.5582L93.6396 22.9893L93.9608 23.4732L93.9892 24.01L94.2576 24.6118L94.4161 25.0795L94.5665 25.6285L94.5909 26.2059L94.6111 26.824L94.5135 27.3893L94.4809 28.536L94.3913 29.0199L94.249 29.6217L94.0253 30.2154L93.9317 30.74L93.6714 31.2889L93.4151 31.7972L93.285 32.277L93.0247 32.826L92.6912 33.2855L92.5122 33.8426L92.1014 34.2532L91.7598 34.7941L91.4385 35.1315L91.0196 35.6235L90.6902 36.0424L90.1575 36.4408L89.7955 36.7742L89.3888 37.1443L88.791 37.3719L88.3518 37.6565L87.8313 37.933L87.4734 38.2258L86.2128 38.5103L85.8265 38.677L85.2897 38.7054L84.6634 38.807L84.0453 38.8273L82.9555 38.6361ZM84.7003 35.566L85.3225 35.5051L85.8268 35.3913L86.3514 35.0741L86.9492 34.8465L87.3477 34.5578L87.9211 34.1634L88.2871 33.7893L88.6613 33.3339L89.0314 32.9192L89.3283 32.4149L89.7472 31.9229L90.0807 31.4635L90.3369 30.9552L90.3979 30.3452L90.6948 29.841L90.8413 29.1985L90.8576 28.6251L91.0936 27.4987L90.9432 26.9497L91.0408 26.3845L90.805 25.8681L90.7359 25.3272L90.4635 24.766L90.1017 24.278L89.8048 23.9608L89.4308 23.5948L88.9265 23.2979L88.5362 23.0945L87.3976 22.9805L86.7754 23.0415L86.263 23.2366L85.7099 23.4277L85.1528 23.6594L84.677 23.8993L84.2256 24.3059L83.6969 24.6637L83.3675 25.0825L82.8673 25.5664L82.4891 26.0625L82.363 26.5016L82.1026 27.0506L81.8383 27.6402L81.6227 28.1526L81.2811 28.6934L81.1753 29.3399L81.0858 29.8238L81.0043 31.0478L80.988 31.6212L80.9758 32.1539L81.2075 32.711L81.362 33.2194L81.5612 33.6911L81.8824 34.175L82.1304 34.5695L82.6265 34.9477L83.1714 35.2487L83.5617 35.4521L84.7003 35.566ZM99.4483 37.5429L99.9117 37.494L100.456 37.4581L101.583 37.1443L102.113 36.9406L102.548 36.5558L103.004 36.2986L103.507 36.0076L103.848 35.6903L104.789 35.7603L105.248 36.2489L105.244 37.035L104.93 37.4394L104.368 37.8449L103.892 38.2231L103.557 38.5L103.048 38.8313L102.707 39.1485L102.198 39.4798L101.735 39.7774L101.172 39.9343L100.629 40.2187L100.065 40.3756L99.6014 40.4246L99.0846 40.5477L98.5406 40.5836L97.882 40.5594L96.7056 40.4098L96.2074 40.1633L95.7496 39.9234L95.1369 39.6169L94.8262 39.2352L94.3739 38.7063L94.0425 38.1971L93.8856 37.6334L93.7222 37.11L93.6188 36.4722L93.7574 35.8736L93.8132 34.7648L94.0063 34.3407L94.0914 33.8163L94.3172 33.1905L94.5168 32.7261L94.7296 32.181L94.8954 31.6697L94.9871 31.105L95.3143 30.6199L95.3591 30.0889L95.7332 29.57L95.8249 29.0052L96.0376 28.4601L96.3517 28.0557L96.5371 27.4234L96.9112 26.9045L97.1043 26.4804L97.3301 25.8546L97.4894 25.3837L97.7359 24.8854L97.3839 24.2486L96.2271 23.978L95.6962 23.9332L95.3038 23.2899L95.6648 22.8516L95.884 22.2662L96.124 21.8083L96.9015 21.3549L97.4728 21.4063L98.1923 21.5645L98.7908 21.7031L99.649 21.2628L99.8279 20.6708L100.068 20.213L100.321 19.6744L100.621 19.1021L100.746 18.5842L100.986 18.1263L101.314 17.6412L101.492 17.0492L101.86 16.5707L101.999 15.9721L102.279 15.5208L102.532 14.9823L102.745 14.4372L103.65 13.9631L104.174 14.0482L104.92 14.0451L105.451 14.0899L105.935 14.1685L106.387 14.6974L106.094 15.2294L105.888 15.7342L105.514 16.2531L105.401 16.6902L105.175 17.316L104.895 17.7673L104.602 18.2993L104.355 18.7976L104.196 19.2685L103.781 19.7809L103.528 20.3194L103.456 20.7632L103.042 21.2755L102.876 21.7868L103.154 22.3702L103.88 22.4881L104.411 22.5329L105.003 22.7118L106.092 22.8887L106.744 22.9531L107.275 22.9979L107.995 23.1562L108.179 23.8071L107.932 24.3053L107.652 24.7566L107.48 25.3083L106.668 25.7148L106.023 25.61L105.424 25.4714L104.974 25.4397L104.242 25.3621L103.851 25.216L103.152 25.1853L102.641 25.0195L102.07 24.9681L101.165 25.4422L101.046 25.9197L100.793 26.4583L100.466 26.9434L100.293 27.495L99.9529 28.0608L99.666 28.5525L99.4064 29.1314L99.3213 29.6558L99.1086 30.2009L98.8686 30.6587L98.6428 31.2845L98.4432 31.7489L98.1498 32.2809L97.9708 32.8729L97.7112 33.4518L97.6664 33.9828L97.4134 34.5213L97.4251 35.7239L97.461 36.268L97.7792 36.8579L98.1836 37.172L99.4483 37.5429Z" fill="white"/>
</g>
<defs>
<filter id="filter0_d_698_536" x="4.77266" y="9.35835" width="108.074" height="46.3307" filterUnits="userSpaceOnUse" color-interpolation-filters="sRGB">
<feFlood flood-opacity="0" result="BackgroundImageFix"/>
<feColorMatrix in="SourceAlpha" type="matrix" values="0 0 0 0 0 0 0 0 0 0 0 0 0 0 0 0 0 0 127 0" result="hardAlpha"/>
<feOffset/>
<feGaussianBlur stdDeviation="1.6"/>
<feComposite in2="hardAlpha" operator="out"/>
<feColorMatrix type="matrix" values="0 0 0 0 1 0 0 0 0 1 0 0 0 0 1 0 0 0 1 0"/>
<feBlend mode="normal" in2="BackgroundImageFix" result="effect1_dropShadow_698_536"/>
<feBlend mode="normal" in="SourceGraphic" in2="effect1_dropShadow_698_536" result="shape"/>
</filter>
</defs>
</svg>
